<!DOCTYPE svg PUBLIC "-//W3C//DTD SVG 1.1//EN" "http://www.w3.org/Graphics/SVG/1.1/DTD/svg11.dtd">
<!-- Uploaded to: SVG Repo, www.svgrepo.com, Transformed by: SVG Repo Mixer Tools -->
<svg fill="#ffffff" width="64px" height="64px" viewBox="-4.8 -4.8 33.60 33.60" role="img" xmlns="http://www.w3.org/2000/svg" stroke="#ffffff" stroke-width="0.4800000000000001">
<g id="SVGRepo_bgCarrier" stroke-width="0"/>
<g id="SVGRepo_tracerCarrier" stroke-linecap="round" stroke-linejoin="round"/>
<g id="SVGRepo_iconCarrier">
<path d="M13.394 0C8.683 0 4.609 2.716 2.644 6.667h15.641a4.77 4.77 0 0 0 3.073-1.11c.446-.375.864-.785 1.247-1.243l.001-.002A11.974 11.974 0 0 0 13.394 0zM1.804 8.889a12.009 12.009 0 0 0 0 6.222h14.7a3.111 3.111 0 1 0 0-6.222zm.84 8.444C4.61 21.283 8.684 24 13.395 24c3.701 0 7.011-1.677 9.212-4.312l-.001-.002a9.958 9.958 0 0 0-1.247-1.243 4.77 4.77 0 0 0-3.073-1.11z"/>
</g>
</svg>